<svg width="90" height="90" viewBox="0 0 90 90" fill="none" xmlns="http://www.w3.org/2000/svg">
<path d="M76.8199 13.1801C68.3204 4.68088 57.0199 0 45 0C32.9801 0 21.6795 4.68088 13.1801 13.1801C4.68088 21.6795 0 32.9801 0 45C0 57.0199 4.68088 68.3205 13.1801 76.8199C21.6795 85.3191 32.9801 90 45 90C57.0199 90 68.3204 85.3191 76.8199 76.8199C85.3191 68.3205 90 57.0199 90 45C90 32.9801 85.3191 21.6795 76.8199 13.1801ZM74.9554 74.9554C66.954 82.9568 56.3157 87.3633 45 87.3633C33.6843 87.3633 23.046 82.9568 15.0446 74.9554C7.0432 66.954 2.63672 56.3157 2.63672 45C2.63672 33.6843 7.0432 23.046 15.0446 15.0446C23.046 7.0432 33.6843 2.63672 45 2.63672C56.3157 2.63672 66.954 7.0432 74.9554 15.0446C82.9568 23.046 87.3633 33.6843 87.3633 45C87.3633 56.3157 82.9568 66.954 74.9554 74.9554Z" fill="black"/>
<path d="M59.0832 78.3389C55.0258 80.055 50.7374 80.9986 46.3183 81.1556V76.5345C46.3183 75.8064 45.728 75.2161 44.9999 75.2161C44.2719 75.2161 43.6816 75.8064 43.6816 76.5345V81.1551C34.6986 80.8316 26.541 77.2185 20.3784 71.4859L23.6339 68.2304C24.1488 67.7155 24.1488 66.8808 23.6339 66.3659C23.119 65.851 22.2843 65.851 21.7694 66.3659L18.5139 69.6214C12.7813 63.459 9.16834 55.3013 8.8449 46.3184H13.4657C14.1938 46.3184 14.784 45.7281 14.784 45C14.784 44.272 14.1938 43.6817 13.4657 43.6817H8.84438C9.16113 34.9049 12.63 26.6685 18.4992 20.3636L21.7696 23.634C22.0269 23.8915 22.3644 24.0202 22.7017 24.0202C23.0391 24.0202 23.3766 23.8915 23.6339 23.6342C24.1488 23.1193 24.1488 22.2845 23.6339 21.7697L20.3646 18.5003C21.8163 17.1521 23.3869 15.91 25.0729 14.7955C25.6802 14.3941 25.847 13.5762 25.4455 12.9687C25.0438 12.3613 24.2261 12.1943 23.6188 12.596C12.7001 19.8143 6.18164 31.9281 6.18164 45C6.18164 55.3689 10.2195 65.117 17.5513 72.4488C24.8832 79.7806 34.6313 83.8185 45.0001 83.8185C50.24 83.8185 55.3238 82.792 60.1103 80.7675C60.7809 80.4838 61.0947 79.7103 60.8109 79.0397C60.5272 78.3689 59.7536 78.0552 59.0832 78.3389Z" fill="black"/>
<path d="M72.4488 17.5512C65.117 10.2193 55.3688 6.18164 45 6.18164C39.2072 6.18164 33.634 7.42723 28.4353 9.88359C27.777 10.1947 27.4954 10.9805 27.8065 11.6388C28.1175 12.2972 28.9034 12.5785 29.5617 12.2675C34.0098 10.1657 38.7542 9.01822 43.6817 8.84438V13.4655C43.6817 14.1936 44.2719 14.7838 45 14.7838C45.7281 14.7838 46.3184 14.1936 46.3184 13.4655V8.8449C55.3013 9.16834 63.459 12.7815 69.6215 18.5141L66.3661 21.7696C65.8512 22.2844 65.8512 23.1192 66.3661 23.6341C66.6234 23.8914 66.9609 24.0201 67.2982 24.0201C67.6356 24.0201 67.9731 23.8914 68.2304 23.6339L71.4859 20.3784C77.2186 26.541 80.8316 34.6986 81.1551 43.6816H76.5343C75.8062 43.6816 75.2159 44.2719 75.2159 44.9999C75.2159 45.728 75.8062 46.3183 76.5343 46.3183H81.1558C80.942 52.1906 79.3064 57.935 76.3888 63.0086C75.0143 65.3988 73.3674 67.62 71.4961 69.6316L68.2304 66.3658C67.7155 65.8509 66.8808 65.8509 66.3659 66.3658C65.851 66.8807 65.851 67.7155 66.3659 68.2303L69.6309 71.4953C67.8326 73.1682 65.8675 74.6639 63.7605 75.9443C63.1382 76.3224 62.9403 77.1333 63.3184 77.7556C63.5666 78.1639 64.0009 78.3896 64.4464 78.3894C64.6796 78.3894 64.9157 78.3275 65.1296 78.1976C70.727 74.7965 75.4109 69.9987 78.6744 64.3231C82.0396 58.4708 83.8183 51.789 83.8183 44.9999C83.8183 34.6311 79.7806 24.883 72.4488 17.5512Z" fill="black"/>
<path d="M60.039 27.5881L46.7041 40.923C46.1878 40.6755 45.6098 40.5365 45 40.5365C44.3903 40.5365 43.8123 40.6753 43.2958 40.923L36.079 33.7063C35.5641 33.1915 34.7293 33.1915 34.2146 33.7063C33.6998 34.2212 33.6998 35.056 34.2146 35.5707L41.4315 42.7874C41.1838 43.3038 41.045 43.8816 41.045 44.4915C41.045 46.6725 42.8191 48.4466 45 48.4466C47.181 48.4466 48.9551 46.6723 48.9551 44.4915C48.9551 43.8818 48.8163 43.3038 48.5686 42.7874L61.9035 29.4524C62.4184 28.9375 62.4184 28.1028 61.9035 27.5879C61.3887 27.0732 60.5539 27.0732 60.039 27.5881ZM45 45.8099C44.273 45.8099 43.6817 45.2184 43.6817 44.4915C43.6817 43.7647 44.273 43.1732 45 43.1732C45.7271 43.1732 46.3184 43.7647 46.3184 44.4915C46.3184 45.2186 45.7271 45.8099 45 45.8099Z" fill="black"/>
<path d="M49.6582 60.2051C50.3863 60.2051 50.9766 59.6148 50.9766 58.8867C50.9766 58.1586 50.3863 57.5684 49.6582 57.5684H40.3418C39.6137 57.5684 39.0234 58.1586 39.0234 58.8867C39.0234 59.6148 39.6137 60.2051 40.3418 60.2051H49.6582Z" fill="black"/>
</svg>
