<svg width="211" height="69" viewBox="0 0 211 69" fill="none" xmlns="http://www.w3.org/2000/svg">
<rect width="211" height="69" rx="20" fill="white"/>
<path d="M54.0378 45V42.8949H54.5918C55.3797 42.8949 55.9921 42.6425 56.4292 42.1378C56.8662 41.633 57.1801 40.8175 57.3709 39.6911C57.5679 38.5646 57.7002 37.072 57.7679 35.2131L58.1003 26.0909H69.623V45H67.3333V28.1222H60.2793L59.9838 35.6562C59.91 37.6383 59.7284 39.3248 59.4391 40.7159C59.1498 42.107 58.642 43.1688 57.9157 43.9013C57.1893 44.6338 56.1306 45 54.7395 45H54.0378ZM79.6639 45.2955C78.3836 45.2955 77.2602 44.9908 76.2939 44.3814C75.3336 43.772 74.5827 42.9195 74.041 41.8239C73.5055 40.7282 73.2377 39.4479 73.2377 37.983C73.2377 36.5057 73.5055 35.2161 74.041 34.1143C74.5827 33.0125 75.3336 32.157 76.2939 31.5476C77.2602 30.9382 78.3836 30.6335 79.6639 30.6335C80.9442 30.6335 82.0645 30.9382 83.0247 31.5476C83.9911 32.157 84.742 33.0125 85.2775 34.1143C85.8192 35.2161 86.09 36.5057 86.09 37.983C86.09 39.4479 85.8192 40.7282 85.2775 41.8239C84.742 42.9195 83.9911 43.772 83.0247 44.3814C82.0645 44.9908 80.9442 45.2955 79.6639 45.2955ZM79.6639 43.3381C80.6364 43.3381 81.4366 43.0888 82.0645 42.5902C82.6923 42.0916 83.157 41.4361 83.4586 40.6236C83.7602 39.8111 83.911 38.9309 83.911 37.983C83.911 37.035 83.7602 36.1518 83.4586 35.3331C83.157 34.5144 82.6923 33.8527 82.0645 33.348C81.4366 32.8433 80.6364 32.5909 79.6639 32.5909C78.6913 32.5909 77.8912 32.8433 77.2633 33.348C76.6355 33.8527 76.1708 34.5144 75.8691 35.3331C75.5675 36.1518 75.4167 37.035 75.4167 37.983C75.4167 38.9309 75.5675 39.8111 75.8691 40.6236C76.1708 41.4361 76.6355 42.0916 77.2633 42.5902C77.8912 43.0888 78.6913 43.3381 79.6639 43.3381ZM98.169 30.8182V32.8494H91.5952V45H89.4162V30.8182H98.169ZM106.375 45.2955C105.095 45.2955 103.971 44.9908 103.005 44.3814C102.045 43.772 101.294 42.9195 100.752 41.8239C100.216 40.7282 99.9487 39.4479 99.9487 37.983C99.9487 36.5057 100.216 35.2161 100.752 34.1143C101.294 33.0125 102.045 32.157 103.005 31.5476C103.971 30.9382 105.095 30.6335 106.375 30.6335C107.655 30.6335 108.775 30.9382 109.736 31.5476C110.702 32.157 111.453 33.0125 111.988 34.1143C112.53 35.2161 112.801 36.5057 112.801 37.983C112.801 39.4479 112.53 40.7282 111.988 41.8239C111.453 42.9195 110.702 43.772 109.736 44.3814C108.775 44.9908 107.655 45.2955 106.375 45.2955ZM106.375 43.3381C107.347 43.3381 108.148 43.0888 108.775 42.5902C109.403 42.0916 109.868 41.4361 110.17 40.6236C110.471 39.8111 110.622 38.9309 110.622 37.983C110.622 37.035 110.471 36.1518 110.17 35.3331C109.868 34.5144 109.403 33.8527 108.775 33.348C108.148 32.8433 107.347 32.5909 106.375 32.5909C105.402 32.5909 104.602 32.8433 103.974 33.348C103.346 33.8527 102.882 34.5144 102.58 35.3331C102.278 36.1518 102.128 37.035 102.128 37.983C102.128 38.9309 102.278 39.8111 102.58 40.6236C102.882 41.4361 103.346 42.0916 103.974 42.5902C104.602 43.0888 105.402 43.3381 106.375 43.3381ZM114.274 32.8494V30.8182H125.796V32.8494H121.143V45H118.964V32.8494H114.274ZM131.154 41.7869L137.986 30.8182H140.498V45H138.319V34.0312L131.523 45H128.975V30.8182H131.154V41.7869ZM144.488 45V30.8182H155.642V45H153.463V32.8494H146.667V45H144.488Z" fill="#005BD1"/>
</svg>
