<svg width="85" height="78" viewBox="0 0 85 78" fill="none" xmlns="http://www.w3.org/2000/svg">
<path d="M61.8127 78C61.2177 78 60.6086 77.9256 60.0065 77.7662L5.2417 63.1002C1.48753 62.066 -0.7508 58.1773 0.233784 54.4231L7.14357 28.6681C7.39857 27.7225 8.36899 27.1735 9.31108 27.4143C10.2567 27.6658 10.8163 28.6398 10.5648 29.5818L3.65858 55.3298C3.16628 57.2069 4.29253 59.1618 6.17316 59.6825L60.9167 74.3414C62.7973 74.8373 64.7382 73.7181 65.2269 71.8481L67.993 61.5985C68.2479 60.6529 69.2184 60.0898 70.164 60.3483C71.1096 60.6033 71.6657 61.5773 71.4142 62.5193L68.6517 72.7548C67.8194 75.9068 64.9507 78 61.8127 78Z" fill="#051A47"/>
<path d="M77.9166 56.75H21.25C17.3435 56.75 14.1666 53.5732 14.1666 49.6667V7.16671C14.1666 3.26025 17.3435 0.083374 21.25 0.083374H77.9166C81.8231 0.083374 85 3.26025 85 7.16671V49.6667C85 53.5732 81.8231 56.75 77.9166 56.75ZM21.25 3.62504C19.2985 3.62504 17.7083 5.21525 17.7083 7.16671V49.6667C17.7083 51.6182 19.2985 53.2084 21.25 53.2084H77.9166C79.8681 53.2084 81.4583 51.6182 81.4583 49.6667V7.16671C81.4583 5.21525 79.8681 3.62504 77.9166 3.62504H21.25Z" fill="#051A47"/>
<path d="M31.875 24.875C27.9685 24.875 24.7916 21.6982 24.7916 17.7917C24.7916 13.8852 27.9685 10.7084 31.875 10.7084C35.7814 10.7084 38.9583 13.8852 38.9583 17.7917C38.9583 21.6982 35.7814 24.875 31.875 24.875ZM31.875 14.25C29.9235 14.25 28.3333 15.8402 28.3333 17.7917C28.3333 19.7432 29.9235 21.3334 31.875 21.3334C33.8264 21.3334 35.4166 19.7432 35.4166 17.7917C35.4166 15.8402 33.8264 14.25 31.875 14.25Z" fill="#051A47"/>
<path d="M16.1854 52.9605C15.7321 52.9605 15.2787 52.7869 14.9317 52.4434C14.241 51.7527 14.241 50.63 14.9317 49.9394L31.659 33.2121C33.6635 31.2075 37.1662 31.2075 39.1708 33.2121L44.1504 38.1917L57.9346 21.6521C58.9369 20.4515 60.4102 19.7538 61.9792 19.7396H62.0181C63.5694 19.7396 65.0392 20.4125 66.0521 21.5919L84.575 43.2032C85.2125 43.9434 85.1275 45.0625 84.3837 45.7C83.6435 46.3375 82.5279 46.2561 81.8869 45.5088L63.364 23.8975C63.0204 23.5009 62.5458 23.2813 62.0181 23.2813C61.6498 23.2494 61.0017 23.5044 60.6581 23.9188L45.6308 41.9494C45.3121 42.3319 44.8481 42.5621 44.3487 42.5834C43.8458 42.6188 43.3677 42.4205 43.0171 42.0663L36.6669 35.7161C35.9975 35.0502 34.8323 35.0502 34.1629 35.7161L17.4356 52.4434C17.0921 52.7869 16.6387 52.9605 16.1854 52.9605Z" fill="#051A47"/>
</svg>
